<svg xmlns="http://www.w3.org/2000/svg" version="1.1" width="1000"
     height="1000">
    <rect width="1000" height="1000" rx="250" ry="250" fill="#ffffff"/>
    <g transform="matrix(0.9765625,0,0,0.9765625,-0.05099987983703613,-0.13609349727630615)">
        <svg xmlns="http://www.w3.org/2000/svg" version="1.1" width="1024"
             height="1024">
            <svg xmlns="http://www.w3.org/2000/svg" width="1024" height="1024">
                <path fill="#FADC19"
                      d="m178.671 582.967 92.137-38.759c10.172-4.217 20.337-9.3 30.649-13.049-8.851 10.781-14.256 20.527-19.864 33.185-21.771-1.645-44.731 3.899-64.18 13.488-5.383 2.654-10.412 5.845-15.594 8.856-7.704-.614-15.53-2.394-23.148-3.721m549.92 45.763c4.71 11.47 17.099 28.803 24.081 40.175 15.446 25.156 30.017 51.178 46.864 75.413l-43.434-22.54c-9.227-4.818-19.037-9.425-27.589-15.345-2.62-16.31-8.359-29.175-19.04-41.835 7.057-11.785 13.536-23.293 19.118-35.868M279.028 312.797c10.06 3.513 23.879 11.734 34.048 16.6l88.471 42.493c-4.353 4.283-9.501 7.951-14.118 11.98-6.32 5.514-12.147 11.502-17.998 17.505-8.873 10.16-16.516 20.643-24.049 31.838l-.755-1.726c-5.535-12.707-13.509-24.402-20.218-36.508l-25.027-45.841c-6.728-12.142-13.774-24.119-20.354-36.341M746.613 545.14c7.384 3.057 14.41 8.372 21.512 12.136q31.624 16.961 62.815 34.705c11.988 6.702 23.932 13.733 36.308 19.692q-16.08 1.733-32.205 2.971-25.656 3.412-51.375 6.313c-18.232 1.972-37.307 3.623-55.259 7.332q2.242-4.872 4.218-9.857 1.977-4.985 3.681-10.07 1.704-5.084 3.132-10.254 1.428-5.169 2.575-10.407t2.009-10.532q.863-5.293 1.439-10.625t.864-10.686.286-10.718M309.224 436.234q17.307-.35 34.616-.067-3.895 6.568-7.304 13.401t-6.315 13.895-5.293 14.315-4.243 14.661c-1.928 7.68-3.294 15.497-5.024 23.225-14.994-10.109-29.694-20.486-44.44-30.945-15.565-11.833-32.233-22.787-48.532-33.612-6.3-4.185-12.766-8.119-18.89-12.562q52.73-.332 105.425-2.311m86.694-210.864c4.529 4.798 8.619 10.165 12.829 15.249l29.182 35.666 31.744 37.448c5.423 6.414 11.043 12.677 16.137 19.36-8.399 1.923-16.359 4.153-24.431 7.185-19.594 7.386-32.783 14.101-50.463 25.238-3.944-29.825-6.383-59.814-9.674-89.713l-3.508-31.072c-.732-6.37-1.932-12.957-1.816-19.361m149.208-18.585c3.078 2.539 35.779 116.425 38.835 128.847-14.353-3.967-29.556-5.593-44.338-7.019-14.612-.347-29.155-.117-43.584 2.543 3.656-8.871 7.936-17.491 11.575-26.378 8.037-19.622 15.372-39.563 23.009-59.345 4.947-12.814 10.222-25.594 14.503-38.648m143.791 33.216.397.543c-4.464 15.149-5.872 35.783-8.336 51.725q-4.531 28.282-8.47 56.653c-1.48 10.116-3.594 20.512-4.11 30.712-13.462-10.929-29.315-20.688-44.681-28.729-9.467-4.518-19.193-8.843-29.209-11.99 12.703-15.967 29.242-31.602 43.546-46.368 16.946-17.495 33.483-35.494 50.863-52.546m37.954 214.93q54.055 3.923 108.03 8.821c11.594 1.02 23.338 1.253 34.878 2.487-6.074 2.942-11.797 6.612-17.705 9.877-9.119 5.041-18.358 9.786-27.345 15.073l-78.237 44.244c-1.431-8.81-1.547-17.906-2.963-26.802-3.018-18.962-9.609-35.979-16.658-53.7m75.071-121.924.39.353c-.325 1.478-70.772 103.989-78.141 115.973-6.044-11.215-12.546-21.553-19.806-32.033-9.338-12.749-21.283-24.138-32.779-34.914 7.148-2.047 14.091-4.927 21.06-7.513q23.372-8.762 46.532-18.067c20.816-8.171 42.079-15.268 62.744-23.799M373.538 491.298c1.645-6.408 5.084-12.86 8.17-18.713q1.347-2.596 2.783-5.145t2.958-5.047 3.128-4.943q1.607-2.444 3.296-4.832 1.69-2.388 3.46-4.717t3.62-4.596 3.774-4.469q1.926-2.202 3.926-4.337t4.072-4.2 4.213-4.057 4.35-3.912 4.481-3.76q2.273-1.841 4.608-3.604t4.728-3.444 4.843-3.281q2.45-1.598 4.953-3.112 1.787-1.037 3.599-2.029 1.811-.993 3.647-1.94 1.836-.948 3.694-1.85 1.859-.902 3.739-1.758 1.88-.855 3.781-1.665 1.901-.809 3.821-1.571t3.858-1.477q1.939-.714 3.894-1.381 1.955-.666 3.926-1.285t3.957-1.187q1.986-.57 3.985-1.09 2-.52 4.011-.991t4.034-.892 4.055-.792 4.073-.692 4.088-.591q2.049-.271 4.103-.491t4.113-.389 4.121-.287q2.062-.119 4.127-.186 2.065-.068 4.131-.084 2.065-.017 4.131.017 2.065.035 4.129.12t4.126.221 4.118.323q2.058.187 4.11.425 2.052.237 4.098.525t4.083.627q2.038.338 4.067.727t4.048.827 4.026.927 4.002 1.025c42.77 11.077 78.019 40.601 100.132 78.341q1.004 1.71 1.966 3.444.962 1.735 1.881 3.492.919 1.758 1.794 3.537.876 1.78 1.707 3.58t1.618 3.621 1.529 3.66 1.438 3.696 1.347 3.731q.65 1.873 1.254 3.762t1.162 3.792q.557 1.904 1.068 3.82.51 1.916.974 3.845.463 1.928.878 3.867.416 1.939.784 3.888t.687 3.906.592 3.922q.271 1.964.494 3.935.224 1.971.398 3.946t.301 3.955q.126 1.979.203 3.961t.105 3.964.009 3.967q-.021 1.983-.09 3.965t-.187 3.961-.284 3.956-.382 3.948-.478 3.937q-.264 1.966-.576 3.924-.312 1.959-.671 3.909t-.768 3.891-.863 3.871-.958 3.849c-4.409 16.804-12.81 37.183-23.776 50.62-17.353-2.711-31.212-1.365-47.112 6.427q.239-.962.429-1.934c3.297-16.974-1.507-35.296-11.187-49.442-9.77-14.277-27.001-24.404-43.9-27.478-16.827-3.061-35.376.215-49.526 9.955-8.146-24.512-20.737-45.315-41.569-61.058-29.595-22.366-62.952-29.958-99.481-24.9"/>
                <path fill="#038AC1"
                      d="M373.538 491.298c36.529-5.058 69.886 2.534 99.481 24.9 20.832 15.743 33.423 36.546 41.569 61.058 14.15-9.74 32.699-13.016 49.526-9.955 16.899 3.074 34.13 13.201 43.9 27.478 9.68 14.146 14.484 32.468 11.187 49.442q-.19.972-.429 1.934c15.9-7.792 29.759-9.138 47.112-6.427 16.889 3.089 31.932 12.39 43.589 24.87 10.681 12.66 16.42 25.525 19.04 41.835.501 7.389.619 14.672-.43 22.024-3.655 25.62-16.165 44.992-36.696 60.374-12.322 9.231-27.999 14.323-43.18 16.09-7.772.905-15.643.652-23.453.637l-31.452-.039-109.091-.054-148.519.037-42.352.052c-12.472.016-24.824.386-37.209-1.431q-1.523-.214-3.041-.465-1.517-.252-3.028-.54t-3.014-.614-2.999-.687q-1.494-.363-2.98-.761-1.486-.399-2.961-.834t-2.94-.906-2.916-.978-2.892-1.05q-1.439-.542-2.865-1.12-1.425-.577-2.836-1.19-1.411-.612-2.807-1.259t-2.775-1.327-2.741-1.395-2.707-1.463q-1.344-.747-2.669-1.527-1.326-.781-2.632-1.594-1.306-.812-2.591-1.657-1.286-.844-2.551-1.72-1.264-.876-2.507-1.782-1.242-.907-2.462-1.843-1.22-.937-2.417-1.903-1.197-.967-2.37-1.962-1.172-.995-2.32-2.019t-2.27-2.076-2.219-2.131-2.166-2.184-2.111-2.237-2.056-2.288-2-2.338-1.941-2.386-1.882-2.433q-.878-1.185-1.726-2.391t-1.666-2.432q-.819-1.226-1.607-2.472-.788-1.247-1.545-2.512t-1.483-2.548-1.42-2.584-1.356-2.618-1.292-2.651-1.226-2.681-1.16-2.711q-.563-1.362-1.093-2.738t-1.026-2.764q-.495-1.389-.957-2.789t-.889-2.812q-.427-1.411-.819-2.832t-.75-2.852-.679-2.869-.609-2.885-.538-2.899-.466-2.911-.395-2.922-.323-2.931-.251-2.937q-.108-1.471-.179-2.943-.072-1.473-.107-2.947t-.034-2.948q.001-1.475.038-2.949t.111-2.946.182-2.943q.11-1.47.255-2.937t.327-2.931q.182-1.463.399-2.921c3.453-23.233 14.978-46.449 31.373-63.289 5.913-6.073 12.496-11.212 19.265-16.271 5.182-3.011 10.211-6.202 15.594-8.856 19.449-9.589 42.409-15.133 64.18-13.488 5.608-12.658 11.013-22.404 19.864-33.185 4.117-3.932 8.07-8.196 12.413-11.868 17.646-14.923 37.367-22.877 59.668-27.993"/>
            </svg>
        </svg>
    </g>
</svg>